<?xml version="1.0" encoding="utf-8"?>
<svg width="136px" height="86px" viewBox="0 0 136 86" version="1.1" xmlns:xlink="http://www.w3.org/1999/xlink" xmlns="http://www.w3.org/2000/svg">
  <desc>Created with Lunacy</desc>
  <defs>
    <linearGradient x1="-0.704000235" y1="-0.844444454" x2="1.83200073" y2="1.93333328" id="gradient_1">
      <stop offset="0" stop-color="#00FF67" />
      <stop offset="1" stop-color="#59ADFF" />
    </linearGradient>
    <linearGradient x1="-6.239201" y1="1.13558161" x2="3.912262" y2="0.6249318" id="gradient_2">
      <stop offset="0" stop-color="#00FF67" />
      <stop offset="1" stop-color="#59ADFF" />
    </linearGradient>
  </defs>
  <g id="Group-2">
    <g id="Group">
      <path d="M5.999 0L19.001 0Q19.1483 0 19.2954 0.00722606Q19.4424 0.0144521 19.589 0.0288868Q19.7356 0.0433215 19.8812 0.0649301Q20.0269 0.0865387 20.1713 0.115269Q20.3158 0.143999 20.4586 0.179782Q20.6015 0.215565 20.7424 0.258315Q20.8833 0.301064 21.022 0.350677Q21.1607 0.40029 21.2967 0.456647Q21.4328 0.513003 21.5659 0.575968Q21.699 0.638933 21.8289 0.708354Q21.9588 0.777776 22.0851 0.853486Q22.2114 0.929196 22.3339 1.01101Q22.4563 1.09283 22.5746 1.18056Q22.6929 1.26828 22.8067 1.36171Q22.9206 1.45514 23.0297 1.55403Q23.1388 1.65293 23.2429 1.75707Q23.3471 1.8612 23.446 1.97032Q23.5449 2.07944 23.6383 2.19327Q23.7317 2.30711 23.8194 2.4254Q23.9072 2.54369 23.989 2.66613Q24.0708 2.78858 24.1465 2.9149Q24.2222 3.04121 24.2916 3.17109Q24.3611 3.30097 24.424 3.4341Q24.487 3.56722 24.5434 3.70328Q24.5997 3.83934 24.6493 3.978Q24.6989 4.11666 24.7417 4.25758Q24.7844 4.39851 24.8202 4.54136Q24.856 4.68422 24.8847 4.82865Q24.9135 4.97309 24.9351 5.11876Q24.9567 5.26444 24.9711 5.411Q24.9855 5.55755 24.9928 5.70464Q25 5.85173 25 5.999L25 90.001Q25 90.1483 24.9928 90.2954Q24.9855 90.4425 24.9711 90.589Q24.9567 90.7356 24.9351 90.8812Q24.9135 91.0269 24.8847 91.1713Q24.856 91.3158 24.8202 91.4586Q24.7844 91.6015 24.7417 91.7424Q24.6989 91.8833 24.6493 92.022Q24.5997 92.1607 24.5434 92.2967Q24.487 92.4328 24.424 92.5659Q24.3611 92.699 24.2916 92.8289Q24.2222 92.9588 24.1465 93.0851Q24.0708 93.2114 23.989 93.3339Q23.9072 93.4563 23.8194 93.5746Q23.7317 93.6929 23.6383 93.8067Q23.5449 93.9206 23.446 94.0297Q23.3471 94.1388 23.2429 94.2429Q23.1388 94.3471 23.0297 94.446Q22.9206 94.5449 22.8067 94.6383Q22.6929 94.7317 22.5746 94.8194Q22.4563 94.9072 22.3339 94.989Q22.2114 95.0708 22.0851 95.1465Q21.9588 95.2222 21.8289 95.2916Q21.699 95.3611 21.5659 95.424Q21.4328 95.487 21.2967 95.5433Q21.1607 95.5997 21.022 95.6493Q20.8833 95.6989 20.7424 95.7417Q20.6015 95.7844 20.4586 95.8202Q20.3158 95.856 20.1713 95.8847Q20.0269 95.9135 19.8812 95.9351Q19.7356 95.9567 19.589 95.9711Q19.4424 95.9856 19.2954 95.9928Q19.1483 96 19.001 96L5.999 96Q5.85173 96 5.70464 95.9928Q5.55755 95.9856 5.411 95.9711Q5.26444 95.9567 5.11876 95.9351Q4.97309 95.9135 4.82865 95.8847Q4.68422 95.856 4.54136 95.8202Q4.39851 95.7844 4.25758 95.7417Q4.11666 95.6989 3.978 95.6493Q3.83934 95.5997 3.70328 95.5433Q3.56722 95.487 3.4341 95.424Q3.30097 95.3611 3.17109 95.2916Q3.04121 95.2222 2.9149 95.1465Q2.78858 95.0708 2.66613 94.989Q2.54369 94.9072 2.4254 94.8194Q2.30711 94.7317 2.19327 94.6383Q2.07944 94.5449 1.97032 94.446Q1.8612 94.3471 1.75707 94.2429Q1.65293 94.1388 1.55403 94.0297Q1.45514 93.9206 1.36171 93.8067Q1.26829 93.6929 1.18056 93.5746Q1.09283 93.4563 1.01101 93.3339Q0.929196 93.2114 0.853486 93.0851Q0.777776 92.9588 0.708354 92.8289Q0.638933 92.699 0.575968 92.5659Q0.513003 92.4328 0.456647 92.2967Q0.40029 92.1607 0.350677 92.022Q0.301064 91.8833 0.258315 91.7424Q0.215565 91.6015 0.179782 91.4586Q0.143999 91.3158 0.115269 91.1713Q0.0865387 91.0269 0.0649301 90.8812Q0.0433215 90.7356 0.0288868 90.589Q0.0144521 90.4425 0.00722606 90.2954Q0 90.1483 0 90.001L0 5.999Q0 5.85173 0.00722606 5.70464Q0.0144521 5.55755 0.0288868 5.411Q0.0433215 5.26444 0.0649301 5.11876Q0.0865387 4.97309 0.115269 4.82865Q0.143999 4.68422 0.179782 4.54136Q0.215565 4.39851 0.258315 4.25758Q0.301064 4.11666 0.350677 3.978Q0.40029 3.83934 0.456647 3.70328Q0.513003 3.56722 0.575968 3.4341Q0.638933 3.30097 0.708354 3.17109Q0.777776 3.04121 0.853486 2.9149Q0.929196 2.78858 1.01101 2.66613Q1.09283 2.54369 1.18056 2.4254Q1.26828 2.30711 1.36171 2.19327Q1.45514 2.07944 1.55403 1.97032Q1.65293 1.8612 1.75707 1.75707Q1.8612 1.65293 1.97032 1.55403Q2.07944 1.45514 2.19327 1.36171Q2.30711 1.26829 2.4254 1.18056Q2.54369 1.09283 2.66613 1.01101Q2.78858 0.929196 2.9149 0.853486Q3.04121 0.777776 3.17109 0.708354Q3.30097 0.638933 3.4341 0.575968Q3.56722 0.513003 3.70328 0.456647Q3.83934 0.40029 3.978 0.350677Q4.11666 0.301064 4.25758 0.258315Q4.39851 0.215565 4.54136 0.179782Q4.68422 0.143999 4.82865 0.115269Q4.97309 0.0865387 5.11876 0.0649301Q5.26444 0.0433215 5.411 0.0288868Q5.55755 0.0144521 5.70464 0.00722606Q5.85173 0 5.999 0L5.999 0Z" transform="matrix(0.7071068 -0.7071068 0.7071068 0.7071068 0 18.01904)" id="Rectangle" fill="url(#gradient_1)" stroke="none" />
      <path d="M5.999 0L19.001 0Q19.1483 0 19.2954 0.00722606Q19.4424 0.0144521 19.589 0.0288868Q19.7356 0.0433215 19.8812 0.0649301Q20.0269 0.0865387 20.1713 0.115269Q20.3158 0.143999 20.4586 0.179782Q20.6015 0.215565 20.7424 0.258315Q20.8833 0.301064 21.022 0.350677Q21.1607 0.40029 21.2967 0.456647Q21.4328 0.513003 21.5659 0.575968Q21.699 0.638933 21.8289 0.708354Q21.9588 0.777776 22.0851 0.853486Q22.2114 0.929196 22.3339 1.01101Q22.4563 1.09283 22.5746 1.18056Q22.6929 1.26828 22.8067 1.36171Q22.9206 1.45514 23.0297 1.55403Q23.1388 1.65293 23.2429 1.75707Q23.3471 1.8612 23.446 1.97032Q23.5449 2.07944 23.6383 2.19327Q23.7317 2.30711 23.8194 2.4254Q23.9072 2.54369 23.989 2.66613Q24.0708 2.78858 24.1465 2.9149Q24.2222 3.04121 24.2916 3.17109Q24.3611 3.30097 24.424 3.4341Q24.487 3.56722 24.5434 3.70328Q24.5997 3.83934 24.6493 3.978Q24.6989 4.11666 24.7417 4.25758Q24.7844 4.39851 24.8202 4.54136Q24.856 4.68422 24.8847 4.82865Q24.9135 4.97309 24.9351 5.11876Q24.9567 5.26444 24.9711 5.411Q24.9855 5.55755 24.9928 5.70464Q25 5.85173 25 5.999L25 90.001Q25 90.1483 24.9928 90.2954Q24.9855 90.4425 24.9711 90.589Q24.9567 90.7356 24.9351 90.8812Q24.9135 91.0269 24.8847 91.1713Q24.856 91.3158 24.8202 91.4586Q24.7844 91.6015 24.7417 91.7424Q24.6989 91.8833 24.6493 92.022Q24.5997 92.1607 24.5434 92.2967Q24.487 92.4328 24.424 92.5659Q24.3611 92.699 24.2916 92.8289Q24.2222 92.9588 24.1465 93.0851Q24.0708 93.2114 23.989 93.3339Q23.9072 93.4563 23.8194 93.5746Q23.7317 93.6929 23.6383 93.8067Q23.5449 93.9206 23.446 94.0297Q23.3471 94.1388 23.2429 94.2429Q23.1388 94.3471 23.0297 94.446Q22.9206 94.5449 22.8067 94.6383Q22.6929 94.7317 22.5746 94.8194Q22.4563 94.9072 22.3339 94.989Q22.2114 95.0708 22.0851 95.1465Q21.9588 95.2222 21.8289 95.2916Q21.699 95.3611 21.5659 95.424Q21.4328 95.487 21.2967 95.5433Q21.1607 95.5997 21.022 95.6493Q20.8833 95.6989 20.7424 95.7417Q20.6015 95.7844 20.4586 95.8202Q20.3158 95.856 20.1713 95.8847Q20.0269 95.9135 19.8812 95.9351Q19.7356 95.9567 19.589 95.9711Q19.4424 95.9856 19.2954 95.9928Q19.1483 96 19.001 96L5.999 96Q5.85173 96 5.70464 95.9928Q5.55755 95.9856 5.411 95.9711Q5.26444 95.9567 5.11876 95.9351Q4.97309 95.9135 4.82865 95.8847Q4.68422 95.856 4.54136 95.8202Q4.39851 95.7844 4.25758 95.7417Q4.11666 95.6989 3.978 95.6493Q3.83934 95.5997 3.70328 95.5433Q3.56722 95.487 3.4341 95.424Q3.30097 95.3611 3.17109 95.2916Q3.04121 95.2222 2.9149 95.1465Q2.78858 95.0708 2.66613 94.989Q2.54369 94.9072 2.4254 94.8194Q2.30711 94.7317 2.19327 94.6383Q2.07944 94.5449 1.97032 94.446Q1.8612 94.3471 1.75707 94.2429Q1.65293 94.1388 1.55403 94.0297Q1.45514 93.9206 1.36171 93.8067Q1.26829 93.6929 1.18056 93.5746Q1.09283 93.4563 1.01101 93.3339Q0.929196 93.2114 0.853486 93.0851Q0.777776 92.9588 0.708354 92.8289Q0.638933 92.699 0.575968 92.5659Q0.513003 92.4328 0.456647 92.2967Q0.40029 92.1607 0.350677 92.022Q0.301064 91.8833 0.258315 91.7424Q0.215565 91.6015 0.179782 91.4586Q0.143999 91.3158 0.115269 91.1713Q0.0865387 91.0269 0.0649301 90.8812Q0.0433215 90.7356 0.0288868 90.589Q0.0144521 90.4425 0.00722606 90.2954Q0 90.1483 0 90.001L0 5.999Q0 5.85173 0.00722606 5.70464Q0.0144521 5.55755 0.0288868 5.411Q0.0433215 5.26444 0.0649301 5.11876Q0.0865387 4.97309 0.115269 4.82865Q0.143999 4.68422 0.179782 4.54136Q0.215565 4.39851 0.258315 4.25758Q0.301064 4.11666 0.350677 3.978Q0.40029 3.83934 0.456647 3.70328Q0.513003 3.56722 0.575968 3.4341Q0.638933 3.30097 0.708354 3.17109Q0.777776 3.04121 0.853486 2.9149Q0.929196 2.78858 1.01101 2.66613Q1.09283 2.54369 1.18056 2.4254Q1.26828 2.30711 1.36171 2.19327Q1.45514 2.07944 1.55403 1.97032Q1.65293 1.8612 1.75707 1.75707Q1.8612 1.65293 1.97032 1.55403Q2.07944 1.45514 2.19327 1.36171Q2.30711 1.26829 2.4254 1.18056Q2.54369 1.09283 2.66613 1.01101Q2.78858 0.929196 2.9149 0.853486Q3.04121 0.777776 3.17109 0.708354Q3.30097 0.638933 3.4341 0.575968Q3.56722 0.513003 3.70328 0.456647Q3.83934 0.40029 3.978 0.350677Q4.11666 0.301064 4.25758 0.258315Q4.39851 0.215565 4.54136 0.179782Q4.68422 0.143999 4.82865 0.115269Q4.97309 0.0865387 5.11876 0.0649301Q5.26444 0.0433215 5.411 0.0288868Q5.55755 0.0144521 5.70464 0.00722606Q5.85173 0 5.999 0L5.999 0Z" transform="matrix(0.7071067 0.7071069 -0.7071069 0.7071067 118.1587 0)" id="Rectangle-Copy" fill="url(#gradient_2)" stroke="none" />
    </g>
  </g>
</svg>