<svg xmlns="http://www.w3.org/2000/svg" width="312" height="604">
  <defs>
    <linearGradient id="a" x1="1.59" y1="1.47" x2=".1" y2="-.06" gradientUnits="objectBoundingBox">
      <stop offset="0" stop-color="#ff00ec"/>
      <stop offset="1" stop-color="#fff"/>
    </linearGradient>
    <linearGradient id="b" x1=".95" y1="1.05" x2=".87" y2=".75" gradientUnits="objectBoundingBox">
      <stop offset="0" stop-color="#ff00ec" stop-opacity="0"/>
      <stop offset="1" stop-color="#fff" stop-opacity="0"/>
    </linearGradient>
  </defs>
  <g transform="translate(-58 -176)">
    <rect width="312" height="604" rx="34" transform="translate(58 176)"/>
    <path d="M30 0h234.84a30 30 0 0130 30v525.02a30 30 0 01-30 30H30a30 30 0 01-30-30V30A30 30 0 0130 0z" transform="translate(66.58 185.5)" fill="url(#a)"/>
    <path d="M30 0h234.84a30 30 0 0130 30v525.02a30 30 0 01-30 30H30a30 30 0 01-30-30V30A30 30 0 0130 0z" transform="rotate(-180 180.71 385.25)" fill="url(#b)"/>
    <path fill="#825202" d="M214 446h147v107H214z"/>
    <path d="M118.66 374.82l73.87-13.05.82-.12.84-.09q.41-.03.83-.04t.83 0q.42 0 .84.03t.82.08q.42.05.83.12t.82.16l.8.2q.4.1.8.24l.8.28q.4.14.77.32l.75.35q.37.18.74.4l.72.42q.36.22.69.46l.67.5q.33.24.64.52.32.27.62.56t.6.59l.56.6q.27.3.53.65.26.33.5.67t.46.7l.44.7.4.74.35.75q.17.37.32.77.15.39.28.79t.25.8l.2.8q.1.4.18.84l32.02 181.24q.07.4.12.82t.09.83l.04.84v.83q0 .42-.03.83t-.08.84l-.12.82-.16.82-.2.81q-.1.41-.24.8-.13.4-.28.79t-.32.77l-.35.75q-.18.37-.4.74-.2.37-.42.72t-.46.69l-.5.67q-.24.32-.52.65l-.56.62-.59.59q-.3.29-.61.56t-.65.53q-.33.26-.67.5t-.69.47l-.71.43-.74.4-.75.35q-.38.17-.77.32-.39.16-.78.29t-.8.24l-.8.2q-.4.1-.84.18l-73.87 13.05-.83.13q-.42.06-.83.08l-.83.05q-.42.02-.84 0l-.83-.04q-.42-.03-.83-.08l-.82-.12-.82-.16-.81-.2q-.41-.1-.8-.24-.4-.13-.79-.28t-.76-.32l-.76-.35q-.37-.18-.74-.4-.36-.2-.71-.42t-.7-.46l-.67-.5q-.33-.24-.64-.52-.32-.27-.62-.56t-.6-.59l-.56-.61q-.28-.31-.53-.65-.26-.33-.5-.67t-.46-.69q-.23-.35-.43-.71t-.4-.74q-.19-.37-.36-.75t-.32-.77l-.28-.79-.25-.8-.2-.8-.19-.83-32.01-181.24-.13-.82q-.06-.42-.08-.83l-.05-.83q-.02-.41 0-.84 0-.42.04-.83t.08-.83l.12-.82.16-.82q.09-.41.2-.81t.24-.8q.13-.4.28-.79t.32-.77q.16-.38.35-.75t.39-.74q.2-.36.43-.72t.46-.69q.24-.35.49-.67t.53-.65q.27-.31.56-.61t.59-.6l.6-.56q.3-.27.65-.53.33-.26.67-.5t.7-.46q.34-.23.7-.43t.74-.4q.37-.19.75-.36t.77-.32l.78-.28.8-.25q.4-.11.81-.2t.84-.19z" fill="#e8f0f9"/>
    <path d="M140.5 337.44l17.72-3.13.34-.05.34-.03.35-.02h.34l.34.01.35.03.34.05.33.07.34.08q.17.04.33.1l.32.12.32.13.31.14q.15.07.3.17l.3.17.29.2q.14.09.27.2t.27.21l.25.23.25.24.23.26.22.26.2.28.2.28.18.3.16.3.15.31.13.32.12.32q.06.16.1.33l.08.33.07.34 5.22 29.55.05.34.03.34.02.34v.35l-.01.34-.04.34-.05.34-.06.34-.09.33-.1.33-.1.33q-.06.16-.14.31l-.15.32-.16.3-.17.3-.2.28-.2.28q-.1.14-.21.26l-.23.26q-.11.13-.25.25l-.25.23-.27.22-.27.2-.29.2-.29.17-.3.16-.31.15-.32.13-.32.12-.33.1-.33.09q-.16.04-.34.06l-17.73 3.13-.34.06q-.17.03-.34.03l-.35.02h-.34l-.34-.02-.35-.03-.34-.05-.33-.06-.34-.09-.33-.1-.32-.11-.32-.13-.3-.15-.31-.16-.3-.17-.28-.2-.28-.2q-.14-.1-.27-.22-.13-.1-.25-.23t-.25-.24l-.23-.25-.22-.27-.2-.27-.2-.29-.17-.3-.16-.3-.15-.3-.13-.32-.12-.32-.1-.33-.09-.34-.06-.33-5.22-29.55-.06-.34q-.03-.17-.03-.34l-.02-.35v-.34l.02-.34.03-.35.05-.34.06-.34.09-.33.1-.33.11-.32.14-.32.14-.31.16-.3.18-.3.18-.29.2-.27.23-.27q.1-.13.23-.25t.24-.25l.25-.23.27-.22.27-.2.29-.2.3-.17.3-.17.3-.14.32-.14.32-.11.33-.1.34-.09.33-.07z" fill="#e8f0f9"/>
    <path d="M133.3 325.5l27.59-4.86.2-.03h.2l.19.01.19.03.19.06.18.07.18.08.16.1.16.13.14.13.13.15.11.16q.06.08.1.17t.08.18l.06.19.04.19 3.31 18.71.02.2.01.2-.01.2q-.01.1-.04.19l-.05.19-.07.18-.09.17-.1.17-.12.16q-.06.08-.14.14l-.14.13-.16.11-.17.1q-.08.05-.18.08l-.19.06q-.09.03-.2.04l-27.57 4.87-.2.03h-.2l-.2-.01-.19-.03-.19-.05-.18-.07q-.09-.04-.17-.1t-.17-.1q-.08-.05-.15-.12t-.15-.13l-.13-.15-.1-.16q-.06-.08-.1-.17t-.09-.18l-.06-.18q-.03-.08-.04-.2l-3.3-18.71-.03-.2v-.2-.2q0-.1.04-.19l.05-.19.07-.18.09-.17.1-.17.13-.15.13-.15.15-.12.16-.12.17-.1.18-.08.18-.06.2-.04zM107.13 407.33l107.37-18.97 25.23 142.83-107.37 18.96z" fill="#59adff"/>
    <rect width="74" height="38" rx="10" transform="translate(87 472)" fill="#9b6202"/>
    <rect width="82" height="38" rx="10" transform="translate(87 434)" fill="#9b6202"/>
    <rect width="66" height="28" rx="10" transform="translate(87 510)" fill="#9b6202"/>
    <rect width="74" height="28" rx="10" transform="translate(86 538)" fill="#9b6202"/>
    <g>
      <path d="M155.5 185h117v17.26h-117z"/>
      <path d="M172.76 185h82.48a17.26 17.26 0 110 34.51h-82.48a17.26 17.26 0 010-34.51z"/>
    </g>
    <rect width="82" height="38" rx="10" transform="translate(191 427)" fill="#9b6202"/>
  </g>
</svg>
