<svg width="762" height="120" xmlns="http://www.w3.org/2000/svg">
  <path d="M.5 15.1471c7.41196 0 9.81029-5.45255 16.8-7.19998 4.397-1.09924 8.5064-2.28257 12.8-4 2.5076-1.00305 3.3933-2.648331 5.6-3.199996 2.2241-.556028 6.7548 0 8.8 0 10.0786 0 21.022 1.481376 29.6 7.199996 3.8733 2.58218 5.4047 7.21878 6.4 11.19998 2.5022 10.0089 7.1197 19.6789 9.6 29.6.5904 2.3616 2.8924 4.9847 4 7.2 1.7554 3.5108 1.7893 7.8839 4 11.2.9779 1.4668 2.923 3.0044 4 4.8 3.571 5.9523 6.348 12.3067 11.2 17.6 13.456 14.6789 31.25 25.9499 51.2 28.7999 6.832.976 19.732 1.201 25.6-3.2 4.267-3.2 9.79-11.688 12.8-15.1999 9.512-11.0977 19.665-22.1809 28.8-33.6 3.452-4.3151 5.725-10.5251 9.6-14.4 5.783-5.7832 12.944-8.4721 20-12 22.772-11.386 50.754-14.2754 76-16.8 3.975-.3974 9.728-.8297 13.6 0 5.51 1.1807 7.946 3.3598 12 6.4 9.226 6.9198 18.634 14.0356 28 20.8 10.12 7.3087 19.335 16.3647 30.4 22.4.74.4038 1.613.4973 2.4.8 2.681 1.031 5.36 2.0687 8 3.2 13.971 5.9877 27.104 12.0467 42.4 14.4 14.193 2.1835 41.981 0 53.6 0 20.31 0 47.977 3.8435 66.4-8 15.515-9.9742 27.866-24.6662 40.8-37.6.68-.6799 1.631-1.0231 2.4-1.6 1.366-1.0245 2.793-1.9926 4-3.2 5.784-5.7838 11.837-10.3094 19.2-14.4 2.085-1.1583 4.229-2.213 6.4-3.2.768-.3489 1.559-.7399 2.4-.8 14.875-1.0625 23.498 5.6562 36 12.8 4.736 2.7063 10.368 4.5643 15.2 7.2 11.739 6.4029 22.74 15.8851 36 19.2 2.224.5559 3.004-1.6 4.8-1.6" fill="none" stroke="#000"/>
</svg>
